HIERARCHY
ROOT hip
{
  OFFSET 0 0 0
  CHANNELS 6 Xposition Yposition Zposition Zrotation Yrotation Xrotation
  JOINT abdomen
  {
    OFFSET 0 20.6881 -0.73152
    CHANNELS 3 Zrotation Xrotation Yrotation
    JOINT chest
    {
      OFFSET 0 11.7043 -0.48768
      CHANNELS 3 Zrotation Xrotation Yrotation
      JOINT neck
      {
        OFFSET 0 22.1894 -2.19456
        CHANNELS 3 Zrotation Xrotation Yrotation
        JOINT head
        {
          OFFSET -0.24384 7.07133 1.2192
          CHANNELS 3 Zrotation Xrotation Yrotation
          JOINT leftEye
          {
            OFFSET 4.14528 8.04674 8.04672
            CHANNELS 3 Zrotation Xrotation Yrotation
            End Site
            {
              OFFSET 1 0 0
            }
          }
          JOINT rightEye
          {
            OFFSET -3.6576 8.04674 8.04672
            CHANNELS 3 Zrotation Xrotation Yrotation
            End Site
            {
              OFFSET 1 0 0
            }
          }
        }
      }
      JOINT rCollar
      {
        OFFSET -2.68224 19.2634 -4.8768
        CHANNELS 3 Zrotation Xrotation Yrotation
        JOINT rShldr
        {
          OFFSET -8.77824 -1.95073 1.46304
          CHANNELS 3 Zrotation Xrotation Yrotation
          JOINT rForeArm
          {
            OFFSET -28.1742 -1.7115 0.48768
            CHANNELS 3 Zrotation Xrotation Yrotation
            JOINT rHand
            {
              OFFSET -22.5879 0.773209 7.07136
              CHANNELS 3 Zrotation Xrotation Yrotation
              JOINT rThumb1
              {
                OFFSET -1.2192 -0.487915 3.41376
                CHANNELS 3 Zrotation Xrotation Yrotation
                JOINT rThumb2
                {
                  OFFSET -3.37035 -0.52449 3.41376
                  CHANNELS 3 Zrotation Xrotation Yrotation
                  End Site
                  {
                    OFFSET -1.78271 -1.18214 1.43049
                  }
                }
              }
              JOINT rIndex1
              {
                OFFSET -7.75947 0.938293 5.60832
                CHANNELS 3 Zrotation Xrotation Yrotation
                JOINT rIndex2
                {
                  OFFSET -2.54057 -0.884171 1.56538
                  CHANNELS 3 Zrotation Xrotation Yrotation
                  End Site
                  {
                    OFFSET -1.62519 -0.234802 1.16502
                  }
                }
              }
              JOINT rMid1
              {
                OFFSET -8.24714 1.18213 3.41376
                CHANNELS 3 Zrotation Xrotation Yrotation
                JOINT rMid2
                {
                  OFFSET -3.10165 -0.590103 1.0647
                  CHANNELS 3 Zrotation Xrotation Yrotation
                  End Site
                  {
                    OFFSET -2.48547 -0.328903 0.83742
                  }
                }
              }
              JOINT rRing1
              {
                OFFSET -8.82822 0.546677 1.51678
                CHANNELS 3 Zrotation Xrotation Yrotation
                JOINT rRing2
                {
                  OFFSET -2.60934 -0.819778 -0.0198488
                  CHANNELS 3 Zrotation Xrotation Yrotation
                  End Site
                  {
                    OFFSET -2.33842 -0.294052 0.168128
                  }
                }
              }
              JOINT rPinky1
              {
                OFFSET -8.27202 -0.0477905 -0.4584
                CHANNELS 3 Zrotation Xrotation Yrotation
                JOINT rPinky2
                {
                  OFFSET -1.82734 -0.647385 -0.700984
                  CHANNELS 3 Zrotation Xrotation Yrotation
                  End Site
                  {
                    OFFSET -1.69225 -0.51767 -0.607171
                  }
                }
              }
            }
          }
        }
      }
      JOINT lCollar
      {
        OFFSET 2.68224 19.2634 -4.8768
        CHANNELS 3 Zrotation Xrotation Yrotation
        JOINT lShldr
        {
          OFFSET 8.77824 -1.95073 1.46304
          CHANNELS 3 Zrotation Xrotation Yrotation
          JOINT lForeArm
          {
            OFFSET 28.1742 -1.7115 0.48768
            CHANNELS 3 Zrotation Xrotation Yrotation
            JOINT lHand
            {
              OFFSET 22.5879 0.773209 7.07136
              CHANNELS 3 Zrotation Xrotation Yrotation
              JOINT lThumb1
              {
                OFFSET 1.2192 -0.487915 3.41376
                CHANNELS 3 Zrotation Xrotation Yrotation
                JOINT lThumb2
                {
                  OFFSET 3.37035 -0.52449 3.41376
                  CHANNELS 3 Zrotation Xrotation Yrotation
                  End Site
                  {
                    OFFSET 1.78271 -1.18214 1.43049
                  }
                }
              }
              JOINT lIndex1
              {
                OFFSET 7.75947 0.938293 5.60832
                CHANNELS 3 Zrotation Xrotation Yrotation
                JOINT lIndex2
                {
                  OFFSET 2.54057 -0.884171 1.56538
                  CHANNELS 3 Zrotation Xrotation Yrotation
                  End Site
                  {
                    OFFSET 1.62519 -0.234802 1.16502
                  }
                }
              }
              JOINT lMid1
              {
                OFFSET 8.24714 1.18213 3.41376
                CHANNELS 3 Zrotation Xrotation Yrotation
                JOINT lMid2
                {
                  OFFSET 3.10165 -0.590103 1.0647
                  CHANNELS 3 Zrotation Xrotation Yrotation
                  End Site
                  {
                    OFFSET 2.48547 -0.328903 0.83742
                  }
                }
              }
              JOINT lRing1
              {
                OFFSET 8.82822 0.546677 1.51678
                CHANNELS 3 Zrotation Xrotation Yrotation
                JOINT lRing2
                {
                  OFFSET 2.60934 -0.819778 -0.0198488
                  CHANNELS 3 Zrotation Xrotation Yrotation
                  End Site
                  {
                    OFFSET 2.33842 -0.294052 0.168128
                  }
                }
              }
              JOINT lPinky1
              {
                OFFSET 8.27202 -0.0477905 -0.4584
                CHANNELS 3 Zrotation Xrotation Yrotation
                JOINT lPinky2
                {
                  OFFSET 1.82734 -0.647385 -0.700984
                  CHANNELS 3 Zrotation Xrotation Yrotation
                  End Site
                  {
                    OFFSET 1.69225 -0.51767 -0.607171
                  }
                }
              }
            }
          }
        }
      }
    }
  }
  JOINT rButtock
  {
    OFFSET -8.77824 4.35084 1.2192
    CHANNELS 3 Zrotation Xrotation Yrotation
    JOINT rThigh
    {
      OFFSET 0 -1.70687 -2.19456
      CHANNELS 3 Zrotation Xrotation Yrotation
      JOINT rShin
      {
        OFFSET 0 -36.8199 0.73152
        CHANNELS 3 Zrotation Xrotation Yrotation
        JOINT rFoot
        {
          OFFSET 0.73152 -45.1104 -5.12064
          CHANNELS 3 Zrotation Xrotation Yrotation
          End Site
          {
            OFFSET -1.1221 -3.69964 12.103
          }
        }
      }
    }
  }
  JOINT lButtock
  {
    OFFSET 8.77824 4.35084 1.2192
    CHANNELS 3 Zrotation Xrotation Yrotation
    JOINT lThigh
    {
      OFFSET 0 -1.70687 -2.19456
      CHANNELS 3 Zrotation Xrotation Yrotation
      JOINT lShin
      {
        OFFSET 0 -36.8199 0.73152
        CHANNELS 3 Zrotation Xrotation Yrotation
        JOINT lFoot
        {
          OFFSET -0.73152 -45.1104 -5.12064
          CHANNELS 3 Zrotation Xrotation Yrotation
          End Site
          {
            OFFSET 1.1221 -3.69964 12.103
          }
        }
      }
    }
  }
}
MOTION
Frames:	4
Frame Time:	0.00833333
11.7576 84.4292 247.881 0.0 0.0 0.0 -0.937485 -0.00467889 -0.0260739 -0.25876 -0.00545779 -0.0448321 4.07481e-14 -7.95139e-16 9.93921e-17 1.22153e-13 3.18055e-15 2.842e-16 -0.0 0.0 0.0 -0.0 0.0 0.0 2.02756e-14 3.30014e-17 1.98785e-16 4.29459e-13 8.94531e-16 3.37934e-15 7.34261e-12 -2.17888e-12 -4.13472e-14 8.40933e-11 2.31701e-12 3.11694e-13 1.98347e-10 2.964e-13 6.07486e-13 3.4253e-10 5.08889e-13 1.01937e-12 1.98354e-10 2.98575e-13 5.94764e-13 7.73091 5.47488 0.417314 1.98348e-10 2.97183e-13 5.94764e-13 2.90554 0.965183 0.102902 1.98362e-10 2.97382e-13 6.0033e-13 10.2786 0.731801 0.0259123 1.98343e-10 2.96587e-13 6.07486e-13 2.22167 -0.733487 -0.20892 2.02778e-14 3.30014e-17 -9.93923e-17 4.24765e-13 2.98177e-16 1.39149e-15 7.3517e-12 2.21724e-12 -6.04305e-14 8.40771e-11 -2.09069e-12 3.4668e-13 1.9834e-10 2.7819e-13 5.91583e-13 3.42537e-10 4.80264e-13 1.03527e-12 1.98335e-10 2.81082e-13 6.07486e-13 -7.73091 5.47488 -0.417314 1.98338e-10 2.78994e-13 5.97944e-13 -2.90554 0.965183 -0.102902 1.98333e-10 2.78895e-13 5.99535e-13 -10.2786 0.731801 -0.0259123 1.98342e-10 2.79889e-13 5.94764e-13 -2.22167 -0.733487 0.20892 -2.03217e-16 0.0 -3.88251e-19 -0.229597 -1.95206 -0.0134854 -0.00909539 -2.01819 -0.0753217 -0.480607 3.9695 0.135085 2.03217e-16 0.0 3.88251e-19 -1.19875 -5.36325 0.104977 4.55854e-05 4.16068 -0.021172 0.495719 1.20193 -0.0808719
12.1596 83.7335 248.554 -2.9417 12.2513 -5.3146 -2.21036 3.42741 -3.13972 2.00786 -3.83649 -0.724709 -2.61977 7.43514 -6.05848 4.87302 -7.73346 -11.7221 -0.0 0.0 0.0 -0.0 0.0 0.0 3.45645e-14 -4.56049e-15 5.49783e-14 10.1146 -23.36 1.79284 -4.942 -2.41084 7.53104 0.400013 -14.1117 -1.77294 6.45952e-11 7.83268e-11 -3.16328e-10 1.23322e-10 1.32241e-10 -5.48527e-10 6.46024e-11 7.83264e-11 -3.16339e-10 7.73091 5.47488 0.417314 6.45967e-11 7.83254e-11 -3.16336e-10 2.90554 0.965183 0.102902 6.46098e-11 7.83249e-11 -3.16333e-10 10.2786 0.731801 0.0259123 6.45896e-11 7.83243e-11 -3.16324e-10 2.22167 -0.733487 -0.20892 3.45896e-14 -4.56025e-15 5.47062e-14 -21.4571 2.89459 6.55666 7.67454 -4.63012 -10.4885 -0.0143105 -2.65423 0.371583 -2.01227e-10 -6.40631e-10 1.70978e-10 -3.50103e-10 -1.11022e-09 2.9416e-10 -2.01234e-10 -6.40631e-10 1.70993e-10 -7.73091 5.47488 -0.417314 -2.01228e-10 -6.40632e-10 1.70981e-10 -2.90554 0.965183 -0.102902 -2.01234e-10 -6.40631e-10 1.70983e-10 -10.2786 0.731801 -0.0259123 -2.01223e-10 -6.40629e-10 1.70978e-10 -2.22167 -0.733487 0.20892 -2.03217e-16 0.0 -3.88251e-19 0.210257 -2.3909 0.348673 0.0255303 5.27959 0.0956613 -1.11201 -1.05557 -6.53103 2.03217e-16 0.0 3.88251e-19 -0.439301 -5.97104 -2.65227 -0.000113937 10.5657 -0.11525 0.544852 -2.0549 0.835934
12.3303 83.7278 248.528 -2.614 12.5093 -5.2212 -3.15051 7.02254 -6.46936 4.30651 -7.88141 -1.45413 -3.64053 15.0107 -12.8038 6.58468 -14.8126 -24.7714 -0.0 0.0 0.0 -0.0 0.0 0.0 5.14694e-14 -8.23513e-15 1.10844e-13 23.1099 -47.973 5.0685 -9.48278 -4.81999 15.5337 -0.249488 -28.9688 -4.04236 -9.7264e-11 1.59925e-10 -6.09235e-10 -1.45413e-10 2.708e-10 -1.05771e-09 -9.72561e-11 1.59922e-10 -6.09244e-10 7.73091 5.47488 0.417314 -9.7262e-11 1.59921e-10 -6.09238e-10 2.90554 0.965183 0.102902 -9.72495e-11 1.5992e-10 -6.09237e-10 10.2786 0.731801 0.0259123 -9.72709e-11 1.5992e-10 -6.09227e-10 2.22167 -0.733487 -0.20892 5.15199e-14 -8.23462e-15 1.10599e-13 -44.8576 5.82063 13.5381 13.9622 -8.99884 -21.7791 0.0081408 -5.4563 0.766574 -6.45974e-10 -1.29277e-09 3.3288e-10 -1.12073e-09 -2.24008e-09 5.72322e-10 -6.45984e-10 -1.29277e-09 3.32893e-10 -7.73091 5.47488 -0.417314 -6.45975e-10 -1.29277e-09 3.32879e-10 -2.90554 0.965183 -0.102902 -6.45981e-10 -1.29277e-09 3.32881e-10 -10.2786 0.731801 -0.0259123 -6.45968e-10 -1.29277e-09 3.32876e-10 -2.22167 -0.733487 0.20892 -2.03217e-16 0.0 -3.88251e-19 0.682658 -2.85328 0.733758 0.0139691 12.9951 0.282784 -3.04503 -6.20072 -13.661 2.03217e-16 0.0 3.88251e-19 0.300183 -6.59225 -5.57311 0.0237266 17.3363 -0.220788 0.711368 -5.49273 1.81886
12.2895 83.744 248.569 -2.7104 12.3888 -5.4075 -3.62744 10.1686 -9.50074 6.26361 -11.4918 -2.12215 -2.94246 21.2737 -19.3906 5.34575 -19.2529 -37.2403 -0.0 0.0 0.0 -0.0 0.0 0.0 6.31424e-14 -1.37475e-14 1.64537e-13 41.5926 -69.5311 14.2483 -12.9685 -6.73379 22.7386 -2.1886 -42.1435 -6.96456 -2.02909e-10 2.34388e-10 -9.502e-10 -3.15094e-10 3.95706e-10 -1.64762e-09 -2.02901e-10 2.34382e-10 -9.50207e-10 7.73091 5.47488 0.417314 -2.02907e-10 2.34382e-10 -9.50199e-10 2.90554 0.965183 0.102902 -2.02895e-10 2.3438e-10 -9.50199e-10 10.2786 0.731801 0.0259123 -2.02917e-10 2.3438e-10 -9.50188e-10 2.22167 -0.733487 -0.20892 6.32131e-14 -1.37468e-14 1.64317e-13 -66.3325 8.22845 19.8577 18.1306 -12.0279 -32.1489 0.0611986 -7.96134 1.12439 -1.00036e-09 -1.92245e-09 5.11751e-10 -1.73538e-09 -3.33161e-09 8.80411e-10 -1.00037e-09 -1.92245e-09 5.11763e-10 -7.73091 5.47488 -0.417314 -1.00036e-09 -1.92245e-09 5.11747e-10 -2.90554 0.965183 -0.102902 -1.00037e-09 -1.92245e-09 5.11749e-10 -10.2786 0.731801 -0.0259123 -1.00035e-09 -1.92245e-09 5.11744e-10 -2.22167 -0.733487 0.20892 -2.03217e-16 0.0 -3.88251e-19 1.10663 -3.26815 1.07381 -0.0418451 19.8746 0.46395 -5.85332 -10.457 -20.2092 2.03217e-16 0.0 3.88251e-19 0.904126 -7.13302 -8.18644 0.0678987 23.3755 -0.324272 0.958444 -8.55986 2.69797
